# xmcd
#
# Track frame offsets:
#	150
#	12500
#	25177
#	38395
#	49095
#	61732
#	75332
#	87375
#	99600
#	111732
#	125385
#	137687
#	149862
#	162165
#
# Disc length: 2329 seconds
#
# Revision: 0
# Processed by: cddbd v1.4PL0 Copyright (c) Steve Scherf et al.
# Submitted via: dBpowerAMP V4.0
#
DISCID=b909170e
DTITLE=Los Panchos - LA BAMBA - Los Panchos
DYEAR=1900
DGENRE=Country
TTITLE0=Caminemos
TTITLE1=Contigo
TTITLE2=Sin un amor
TTITLE3=Solo
TTITLE4=Sin ti
TTITLE5=No me quieras tanto
TTITLE6=Hasta mañana
TTITLE7=Nuestro amor
TTITLE8=Ya es muy tarde
TTITLE9=Llamandote
TTITLE10=La Bamba
TTITLE11=Soy rancheiro
TTITLE12=Compadre pancho
TTITLE13=Borracho enamorado
EXTD=
EXTT0=
EXTT1=
EXTT2=
EXTT3=
EXTT4=
EXTT5=
EXTT6=
EXTT7=
EXTT8=
EXTT9=
EXTT10=
EXTT11=
EXTT12=
EXTT13=
PLAYORDER=
